<?xml version="1.0" encoding="iso-8859-1"?>
<!-- Uploaded to: SVG Repo, www.svgrepo.com, Generator: SVG Repo Mixer Tools -->
<svg fill="#000000" height="800px" width="800px" version="1.1" id="Layer_1" xmlns="http://www.w3.org/2000/svg" xmlns:xlink="http://www.w3.org/1999/xlink" 
	 viewBox="0 0 512 512" xml:space="preserve">
<g transform="translate(1 1)">
	<g>
		<g>
			<path d="M255-1C114.2-1-1,114.2-1,255s115.2,256,256,256s256-115.2,256-256S395.8-1,255-1z M263.533,493.763v-42.497
				c0-5.12-3.413-8.533-8.533-8.533s-8.533,3.413-8.533,8.533v42.497C121.8,489.328,20.671,388.2,16.237,263.533h42.497
				c5.12,0,8.533-3.413,8.533-8.533s-3.413-8.533-8.533-8.533H16.237C20.672,121.8,121.8,20.672,246.467,16.237v42.497
				c0,5.12,3.413,8.533,8.533,8.533s8.533-3.413,8.533-8.533V16.237C388.2,20.671,489.328,121.8,493.763,246.467h-42.497
				c-5.12,0-8.533,3.413-8.533,8.533s3.413,8.533,8.533,8.533h42.497C489.329,388.2,388.2,489.329,263.533,493.763z"/>
			<path d="M332.653,135.533L208.92,206.36c-2.56,0.853-73.387,127.147-73.387,127.147c-6.827,12.8-5.12,27.307,5.12,37.547
				c5.973,5.973,14.507,9.387,22.187,9.387c5.12,0,10.24-1.707,15.36-4.267L300.227,306.2c1.707,0,4.267-2.56,4.267-3.413
				l0.853-0.853L375.32,178.2c6.827-12.8,5.12-27.307-5.12-37.547S344.6,128.707,332.653,135.533z M170.52,361.667
				c-5.973,2.56-12.8,1.707-17.067-2.56c-5.12-5.12-5.973-11.947-2.56-17.067l64.853-113.493l69.12,69.12L170.52,361.667z
				 M359.96,168.813L295.107,283.16l-68.267-68.267l113.493-65.707c5.973-2.56,12.8-1.707,17.067,2.56
				C361.667,156.867,363.373,163.693,359.96,168.813z"/>
		</g>
	</g>
</g>
</svg>