<?xml version="1.0" encoding="iso-8859-1"?>
<!-- Uploaded to: SVG Repo, www.svgrepo.com, Generator: SVG Repo Mixer Tools -->
<svg fill="#000000" height="800px" width="800px" version="1.1" id="Layer_1" xmlns="http://www.w3.org/2000/svg" xmlns:xlink="http://www.w3.org/1999/xlink" 
	 viewBox="0 0 512 512" xml:space="preserve">
<g transform="translate(1 1)">
	<g>
		<g>
			<path d="M212.942,212.412v34.054c0,5.12,3.413,8.533,8.533,8.533h0.461l7.219,120.32c0.853,13.653,12.8,24.747,26.453,24.747
				c14.507,0,25.6-11.093,26.453-25.6L289.23,255h0.512c5.12,0,8.533-3.413,8.533-8.533v-34.054
				c40.152-16.66,68.267-56.174,68.267-102.479C366.542,48.493,317.048-1,255.608-1S144.675,48.493,144.675,109.933
				C144.675,156.238,172.79,195.752,212.942,212.412z M264.995,373.613c0,5.12-4.267,9.387-9.387,9.387s-9.387-4.267-9.387-9.387
				L239.395,255h32.427L264.995,373.613z M281.208,218.307v19.627h-51.2v-19.627c1.32,0.152,2.583,0.295,3.801,0.429
				c7.046,1.394,14.333,2.131,21.799,2.131c7.466,0,14.753-0.737,21.799-2.131C278.625,218.602,279.888,218.459,281.208,218.307z
				 M255.608,16.067c52.053,0,93.867,41.813,93.867,93.867c0,50.303-39.05,91.039-88.653,93.722
				c-0.258,0.014-0.515,0.026-0.77,0.038c-0.607,0.028-1.216,0.052-1.826,0.069c-0.167,0.005-0.333,0.007-0.499,0.011
				c-0.705,0.015-1.41,0.027-2.119,0.027s-1.414-0.011-2.119-0.027c-0.167-0.004-0.332-0.006-0.5-0.011
				c-0.61-0.017-1.219-0.041-1.826-0.069c-0.255-0.012-0.512-0.024-0.77-0.038c-49.603-2.683-88.652-43.419-88.652-93.722
				C161.742,57.88,203.555,16.067,255.608,16.067z"/>
			<path d="M195.875,109.933c0-33.28,26.453-59.733,59.733-59.733c5.12,0,8.533-3.413,8.533-8.533s-3.413-8.533-8.533-8.533
				c-42.667,0-76.8,34.133-76.8,76.8c0,5.12,3.413,8.533,8.533,8.533S195.875,115.053,195.875,109.933z"/>
			<path d="M504.782,494.787l-221.12-68.037l169.92-52.283c5.12-0.853,7.68-5.973,5.973-10.24c-0.853-5.12-5.973-7.68-10.24-5.973
				l-194.133,59.733L61.048,358.253c-4.267-0.853-8.533,1.707-10.24,5.973c-0.853,4.267,1.707,8.533,5.973,10.24l169.92,52.283
				L5.582,494.787c-5.12,0.853-7.68,5.973-5.973,10.24C1.315,508.44,4.728,511,8.142,511c0.853,0,1.707,0,1.707,0l245.333-75.487
				L500.515,511c0.853,0,1.707,0,2.56,0c3.413,0,6.827-2.56,7.68-5.973C511.608,500.76,509.048,496.493,504.782,494.787z"/>
		</g>
	</g>
</g>
</svg>